<svg xmlns="http://www.w3.org/2000/svg" version="1.1" xmlns:xlink="http://www.w3.org/1999/xlink" xmlns:svgjs="http://svgjs.dev/svgjs" width="1920" height="1080" preserveAspectRatio="none" viewBox="0 0 1920 1080"><g mask="url(&quot;#SvgjsMask1015&quot;)" fill="none"><path d="M 0,426 C 76.8,365.6 230.4,122 384,124 C 537.6,126 614.4,416.6 768,436 C 921.6,455.4 998.4,212.4 1152,221 C 1305.6,229.6 1382.4,477.8 1536,479 C 1689.6,480.2 1843.2,277.4 1920,227L1920 1080L0 1080z" fill="rgba(0, 0, 0, 0)"></path><path d="M 0,794 C 96,833 288,1022.8 480,989 C 672,955.2 768,651 960,625 C 1152,599 1248,835.4 1440,859 C 1632,882.6 1824,766.2 1920,743L1920 1080L0 1080z" fill="rgba(132, 169, 204, 1)"></path></g><defs><mask id="SvgjsMask1015"><rect width="1920" height="1080" fill="#ffffff"></rect></mask></defs></svg>